<svg id="Capa_1" enable-background="new 0 0 512 512" height="512" viewBox="0 0 512 512" width="512" xmlns="http://www.w3.org/2000/svg"><path d="m391.573 263.946h-363.348c-8.284 0-15 6.716-15 15v218.054c0 8.284 6.716 15 15 15h363.348c8.284 0 15-6.716 15-15v-218.054c0-8.284-6.716-15-15-15z" fill="#4a5fb3"/><path d="m391.573 263.946h-181.674v248.054h181.674c8.284 0 15-6.716 15-15v-218.054c0-8.284-6.716-15-15-15z" fill="#28326b"/><path d="m209.899 122.654c-92.908 0-168.494 75.586-168.494 168.493s75.586 168.494 168.494 168.494 168.494-75.586 168.494-168.494-75.586-168.493-168.494-168.493z" fill="#ffcca1"/><path d="m209.899 122.654v336.987c92.908 0 168.494-75.586 168.494-168.494s-75.586-168.493-168.494-168.493z" fill="#ffb082"/><path d="m212.224 15.965h-4.65c-98.893 0-179.349 80.456-179.349 179.349v48.379c0 8.284 6.716 15 15 15h333.348c8.284 0 15-6.716 15-15v-48.379c0-98.894-80.456-179.349-179.349-179.349z" fill="#ffe159"/><path d="m212.224 15.965h-2.325v242.729h166.674c8.284 0 15-6.716 15-15v-48.379c0-98.895-80.456-179.35-179.349-179.35z" fill="#ffb43b"/><path d="m374.352 218.053h-328.906c-22.912 0-41.552 18.64-41.552 41.552s18.64 41.552 41.552 41.552h328.905c22.912 0 41.552-18.64 41.552-41.552s-18.64-41.552-41.551-41.552z" fill="#ffb43b"/><path d="m374.352 218.053h-164.453v83.104h164.453c22.912 0 41.552-18.64 41.552-41.552s-18.641-41.552-41.552-41.552z" fill="#ff9029"/><path d="m249.17 0h-78.542c-4.233 0-8.269 1.789-11.112 4.924-2.843 3.136-4.229 7.328-3.816 11.54l10.143 103.386c.753 7.68 7.211 13.536 14.928 13.536h58.257c7.717 0 14.175-5.855 14.928-13.536l10.143-103.386c.414-4.212-.973-8.404-3.816-11.54-2.844-3.135-6.88-4.924-11.113-4.924z" fill="#ffb43b"/><path d="m260.282 4.924c-2.843-3.135-6.879-4.924-11.112-4.924h-39.271v133.386h29.128c7.717 0 14.175-5.855 14.928-13.536l10.143-103.386c.414-4.212-.972-8.403-3.816-11.54z" fill="#ff9029"/><path d="m108.927 62.846c-2.125-8.007-10.341-12.774-18.345-10.652-8.007 2.125-12.776 10.338-10.652 18.346l14.644 55.193c1.783 6.719 7.852 11.157 14.489 11.157 1.273 0 2.568-.164 3.856-.505 8.007-2.125 12.776-10.338 10.652-18.345z" fill="#ffb43b"/><path d="m329.216 52.194c-8.003-2.123-16.22 2.644-18.345 10.652l-14.644 55.193c-2.125 8.007 2.645 16.221 10.652 18.345 1.289.342 2.583.505 3.856.505 6.637 0 12.706-4.439 14.489-11.157l14.644-55.193c2.124-8.007-2.645-16.22-10.652-18.345z" fill="#ff9029"/><path d="m361.132 218.053c-81.042 0-146.974 65.932-146.974 146.974s65.932 146.973 146.974 146.973 146.974-65.932 146.974-146.974-65.933-146.973-146.974-146.973z" fill="#36c1e0"/><path d="m361.132 218.053v293.947c81.042 0 146.974-65.932 146.974-146.974s-65.933-146.973-146.974-146.973z" fill="#1f8399"/><path d="m293.526 331.389v68.263c0 2.036 1.651 3.687 3.687 3.687h33.136c2.051 0 3.651-1.688 3.648-3.739 0-.013 0-.026 0-.038 0-14.986 12.148-27.134 27.134-27.134 14.985 0 27.134 12.148 27.134 27.134v.038c-.003 2.051 1.597 3.739 3.648 3.739h33.136c2.036 0 3.687-1.651 3.687-3.687v-68.263c0-2.036-1.651-3.687-3.687-3.687h-127.836c-2.036-.001-3.687 1.65-3.687 3.687z" fill="#f0f3fa"/><path d="m361.132 372.428c14.985 0 27.134 12.148 27.134 27.134v.038c-.003 2.051 1.597 3.739 3.648 3.739h33.136c2.036 0 3.687-1.651 3.687-3.687v-68.263c0-2.036-1.651-3.687-3.687-3.687h-63.918z" fill="#a1ccff"/></svg>