<?xml version="1.0" encoding="iso-8859-1"?>
<!-- Generator: Adobe Illustrator 22.1.0, SVG Export Plug-In . SVG Version: 6.00 Build 0)  -->
<svg xmlns="http://www.w3.org/2000/svg" xmlns:xlink="http://www.w3.org/1999/xlink" version="1.1" id="Layer_1_1_" x="0px" y="0px" viewBox="0 0 64 64" style="enable-background:new 0 0 64 64;" xml:space="preserve" width="512" height="512">
<g>
	<path style="fill:#F0BC5E;" d="M44,16c-3.866,0-7,3.134-7,7c0,3.17,2.109,5.845,5,6.706V25c0-1.105,0.895-2,2-2s2,0.895,2,2v4.706   c2.891-0.861,5-3.536,5-6.706C51,19.134,47.866,16,44,16z"/>
	<path style="fill:#F0BC5E;" d="M5,7v22c0,1.105,0.895,2,2,2h24c1.105,0,2-0.895,2-2V7c0-1.105-0.895-2-2-2H7C5.895,5,5,5.895,5,7z    M10,26c0-1.776,1.177-3.336,2.885-3.824L17,21v-1.555c-1.191-0.693-2-1.968-2-3.445v-2c0-2.327,1.988-4.19,4.358-3.984   C21.46,10.198,23,12.098,23,14.208V16c0,1.477-0.809,2.752-2,3.445V21l4.115,1.176C26.823,22.664,28,24.224,28,26H10z"/>
	<g>
		<path d="M58,1H6C3.243,1,1,3.243,1,6v32c0,2.757,2.243,5,5,5h27.525l1.338,10.029c0.119,0.901,0.483,1.753,1.051,2.463    l2.429,3.036C38.767,59.06,39,59.725,39,60.403V63h16v-2.789c0-0.595,0.174-1.17,0.504-1.664l2.656-3.984    C58.71,53.739,59,52.78,59,51.789v-8.89c2.279-0.465,4-2.484,4-4.899V6C63,3.243,60.757,1,58,1z M57,51.789    c0,0.595-0.174,1.17-0.504,1.664l-2.656,3.984C53.29,58.261,53,59.22,53,60.211V61H41v-0.597c0-1.13-0.39-2.24-1.096-3.124    l-2.429-3.036c-0.341-0.426-0.559-0.937-0.631-1.478l-1.837-13.772C35.003,38.954,35,38.915,35,38.876    C35,38.393,35.393,38,35.875,38h0.517c0.435,0,0.798,0.312,0.864,0.742l1.452,9.433C38.96,49.812,40.344,51,42,51h1V25    c0-0.551,0.448-1,1-1s1,0.449,1,1v10v8v4h2v-4v-8c0-0.551,0.448-1,1-1s1,0.449,1,1v2v10h2V37c0-0.551,0.448-1,1-1s1,0.449,1,1v3v5    v2h2v-2v-5c0-0.551,0.448-1,1-1s1,0.449,1,1V51.789z M61,38c0,1.302-0.839,2.402-2,2.816V40c0-1.654-1.346-3-3-3    c-0.352,0-0.686,0.072-1,0.184V37c0-1.654-1.346-3-3-3c-0.395,0-0.77,0.081-1.116,0.22C50.539,32.945,49.383,32,48,32    c-0.352,0-0.686,0.072-1,0.184V25c0-1.654-1.346-3-3-3s-3,1.346-3,3v23.551c-0.163-0.186-0.275-0.418-0.315-0.68l-1.452-9.433    C39.016,37.025,37.82,36,36.392,36h-0.517C34.29,36,33,37.29,33,38.876c0,0.126,0.009,0.252,0.025,0.379L33.258,41H6    c-1.654,0-3-1.346-3-3V6c0-1.654,1.346-3,3-3h52c1.654,0,3,1.346,3,3V38z"/>
		<path d="M25.39,21.214L22,20.246v-0.266c1.246-0.939,2-2.416,2-3.979v-1.792c0-2.688-2.001-4.966-4.555-5.188    c-1.403-0.124-2.794,0.35-3.823,1.294C14.591,11.259,14,12.603,14,14v2c0,1.563,0.754,3.041,2,3.979v0.266l-3.39,0.969    C10.484,21.821,9,23.789,9,26v1h20v-1C29,23.789,27.516,21.821,25.39,21.214z M11.175,25c0.318-0.885,1.047-1.595,1.984-1.863    L18,21.754V18.87l-0.497-0.289C16.562,18.033,16,17.068,16,16v-2c0-0.838,0.354-1.645,0.974-2.212    c0.626-0.574,1.446-0.846,2.298-0.776C20.802,11.145,22,12.548,22,14.208V16c0,1.068-0.562,2.033-1.503,2.581L20,18.87v2.884    l4.841,1.383c0.938,0.268,1.666,0.978,1.984,1.863H11.175z"/>
		<path d="M8,33c-1.654,0-3,1.346-3,3s1.346,3,3,3s3-1.346,3-3S9.654,33,8,33z M8,37c-0.552,0-1-0.449-1-1s0.448-1,1-1s1,0.449,1,1    S8.552,37,8,37z"/>
		<path d="M16,33c-1.654,0-3,1.346-3,3s1.346,3,3,3s3-1.346,3-3S17.654,33,16,33z M16,37c-0.552,0-1-0.449-1-1s0.448-1,1-1    s1,0.449,1,1S16.552,37,16,37z"/>
		<path d="M24,33c-1.654,0-3,1.346-3,3s1.346,3,3,3s3-1.346,3-3S25.654,33,24,33z M24,37c-0.552,0-1-0.449-1-1s0.448-1,1-1    s1,0.449,1,1S24.552,37,24,37z"/>
		<path d="M56,5c-1.654,0-3,1.346-3,3s1.346,3,3,3s3-1.346,3-3S57.654,5,56,5z M56,9c-0.552,0-1-0.449-1-1s0.448-1,1-1s1,0.449,1,1    S56.552,9,56,9z"/>
		<path d="M48,5c-1.654,0-3,1.346-3,3s1.346,3,3,3s3-1.346,3-3S49.654,5,48,5z M48,9c-0.552,0-1-0.449-1-1s0.448-1,1-1s1,0.449,1,1    S48.552,9,48,9z"/>
		<path d="M40,5c-1.654,0-3,1.346-3,3s1.346,3,3,3s3-1.346,3-3S41.654,5,40,5z M40,9c-0.552,0-1-0.449-1-1s0.448-1,1-1s1,0.449,1,1    S40.552,9,40,9z"/>
	</g>
</g>
</svg>
