<?xml version="1.0" encoding="iso-8859-1"?>
<!-- Generator: Adobe Illustrator 19.0.0, SVG Export Plug-In . SVG Version: 6.00 Build 0)  -->
<svg version="1.1" id="Capa_1" xmlns="http://www.w3.org/2000/svg" xmlns:xlink="http://www.w3.org/1999/xlink" x="0px" y="0px"
	 viewBox="0 0 512.002 512.002" style="enable-background:new 0 0 512.002 512.002;" xml:space="preserve">
<circle style="fill:#69BFE2;" cx="256.001" cy="399.09" r="64.951"/>
<path style="opacity:0.1;enable-background:new    ;" d="M298.223,349.754c5.527,9.468,8.709,20.473,8.709,32.227
	c0,35.365-28.669,64.035-64.035,64.035c-17.838,0-33.965-7.3-45.576-19.067c10.43,21.929,32.782,37.091,58.681,37.091
	c35.871,0,64.951-29.079,64.951-64.951C320.952,379.342,312.129,361.666,298.223,349.754z"/>
<path style="fill:#97D68F;" d="M485.29,196.509c-6.836,0-13.671-2.607-18.888-7.823c-56.298-56.299-131.02-87.304-210.402-87.304
	s-154.104,31.005-210.402,87.304c-10.432,10.432-27.344,10.432-37.775,0s-10.431-27.344-0.001-37.775
	c66.39-66.389,154.528-102.95,248.179-102.95s181.789,36.561,248.177,102.95c10.431,10.432,10.431,27.344-0.001,37.775
	C498.963,193.9,492.125,196.509,485.29,196.509z"/>
<path style="opacity:0.1;enable-background:new    ;" d="M504.178,150.911c-9.002-9.002-18.417-17.436-28.179-25.325
	c3.098,2.887,6.169,5.814,9.179,8.825c10.431,10.432,10.431,27.344-0.001,37.775c-5.215,5.215-12.052,7.823-18.887,7.823
	c-4.19,0-8.378-0.984-12.195-2.943c4.189,3.749,8.3,7.613,12.307,11.62c5.216,5.216,12.051,7.823,18.887,7.823
	c6.835,0,13.673-2.608,18.887-7.823C514.609,178.254,514.609,161.342,504.178,150.911z"/>
<path style="fill:#69BFE2;" d="M422.362,259.438c-6.837,0-13.671-2.607-18.888-7.824c-39.462-39.462-91.836-61.196-147.473-61.196
	s-108.011,21.734-147.473,61.196c-10.432,10.432-27.343,10.433-37.775,0.001s-10.432-27.344-0.001-37.775
	c49.552-49.553,115.341-76.843,185.249-76.843s135.696,27.29,185.248,76.843c10.431,10.431,10.431,27.344-0.001,37.775
	C436.034,256.829,429.197,259.438,422.362,259.438z"/>
<path style="opacity:0.1;enable-background:new    ;" d="M441.249,213.84c-8.862-8.862-18.252-16.999-28.083-24.408
	c1.881,1.775,3.747,3.571,5.583,5.408c10.431,10.431,10.431,27.344-0.001,37.775c-5.215,5.215-12.052,7.823-18.887,7.823
	c-3.986,0-7.968-0.893-11.632-2.666c5.267,4.337,10.355,8.952,15.245,13.841c5.216,5.217,12.051,7.824,18.888,7.824
	c6.835,0,13.672-2.608,18.887-7.823C451.68,241.183,451.68,224.271,441.249,213.84z"/>
<path style="fill:#69BFE2;" d="M359.482,322.317c-6.836,0-13.671-2.607-18.887-7.823c-22.597-22.596-52.639-35.04-84.594-35.04
	s-61.997,12.444-84.594,35.04c-10.432,10.43-27.344,10.43-37.775,0c-10.431-10.432-10.431-27.344,0.001-37.775
	c32.686-32.686,76.145-50.687,122.368-50.687s89.682,18.001,122.368,50.687c10.432,10.432,10.432,27.344,0.001,37.775
	C373.154,319.708,366.318,322.317,359.482,322.317z"/>
<path style="opacity:0.1;enable-background:new    ;" d="M378.369,276.719c-5.913-5.913-12.183-11.337-18.753-16.269
	c0.698,0.675,1.398,1.348,2.087,2.036c10.432,10.431,10.432,27.344,0.001,37.775c-5.216,5.215-12.052,7.823-18.888,7.823
	c-4.946,0-9.888-1.372-14.22-4.102c4.191,3.213,8.203,6.716,12,10.512c5.216,5.216,12.051,7.823,18.887,7.823
	s13.672-2.608,18.888-7.823C388.801,304.062,388.801,287.15,378.369,276.719z"/>
<g>
</g>
<g>
</g>
<g>
</g>
<g>
</g>
<g>
</g>
<g>
</g>
<g>
</g>
<g>
</g>
<g>
</g>
<g>
</g>
<g>
</g>
<g>
</g>
<g>
</g>
<g>
</g>
<g>
</g>
</svg>
